<svg width="186" height="37" viewBox="0 0 186 37" fill="none" xmlns="http://www.w3.org/2000/svg">
<path d="M5.2404 28.9994H1.14995C1.12924 29.0021 1.1082 28.9999 1.08849 28.993C1.06878 28.9861 1.05094 28.9747 1.03637 28.9598C1.0218 28.9448 1.01089 28.9267 1.00451 28.9068C0.998125 28.887 0.996442 28.8659 0.99959 28.8452V7.71055H5.40618V8.40836C6.32591 7.93111 7.35032 7.69124 8.38632 7.71055H19.8905C21.0501 7.72257 22.185 8.04757 23.1752 8.65124C25.8893 10.4504 27.2464 12.8831 27.2464 15.9493V28.8452C27.2495 28.8659 27.2478 28.887 27.2415 28.9068C27.2351 28.9267 27.2242 28.9448 27.2096 28.9598C27.195 28.9747 27.1772 28.9861 27.1575 28.993C27.1378 28.9999 27.1167 29.0021 27.096 28.9994H23.0094C22.9887 29.0021 22.9677 28.9999 22.948 28.993C22.9283 28.9861 22.9104 28.9747 22.8958 28.9598C22.8813 28.9448 22.8704 28.9267 22.864 28.9068C22.8576 28.887 22.8559 28.8659 22.8591 28.8452V14.9662C22.4221 13.0514 21.3169 12.094 19.5435 12.094H8.71016C8.50246 12.0672 8.2914 12.0993 8.10103 12.1865C6.31988 12.6723 5.42803 13.6657 5.42546 15.1667V28.8452C5.43108 28.8696 5.42984 28.895 5.42188 28.9186C5.41392 28.9423 5.39955 28.9633 5.38037 28.9793C5.36119 28.9952 5.33795 29.0056 5.31324 29.0092C5.28853 29.0127 5.26332 29.0094 5.2404 28.9994Z" fill="white"/>
<path d="M33.137 14.9508V21.7631C33.137 22.9762 33.998 23.9182 35.72 24.589H47.5172C48.9745 24.589 49.9872 23.7074 50.5552 21.9443C50.5976 21.8248 50.6554 21.7631 50.7364 21.7631H54.7228C54.7446 21.765 54.7658 21.7713 54.7851 21.7814C54.8045 21.7916 54.8217 21.8055 54.8357 21.8224C54.8497 21.8392 54.8602 21.8587 54.8666 21.8796C54.873 21.9005 54.8752 21.9225 54.8731 21.9443C54.6685 23.5106 54.0136 24.9838 52.9879 26.1851C51.4072 28.0716 49.7045 29.0149 47.8796 29.0149H35.7817C33.5508 29.0149 31.5641 27.6771 29.8215 25.0015C29.1206 23.7174 28.7447 22.2813 28.7266 20.8185V15.957C28.7266 12.8959 30.0849 10.4632 32.8016 8.65897C33.7996 8.04951 34.944 7.72177 36.1133 7.71057H47.5751C50.4922 7.71057 52.7733 9.4326 54.4182 12.8767C54.6631 13.6158 54.8159 14.3824 54.8731 15.159V19.18C54.8764 19.2005 54.8748 19.2215 54.8685 19.2413C54.8621 19.2611 54.8511 19.279 54.8364 19.2937C54.8217 19.3084 54.8038 19.3194 54.784 19.3257C54.7642 19.3321 54.7433 19.3337 54.7228 19.3304H41.1329L35.7355 14.9508H50.5398C50.0746 13.0463 48.9797 12.094 47.2551 12.094H36.4179C34.6521 12.094 33.5585 13.0463 33.137 14.9508Z" fill="white"/>
<path d="M86.124 0.0616846C85.5958 0.666964 74.5234 11.9205 68.3434 18.3859C68.7469 18.7534 72.101 22.2707 78.4057 28.9378V28.9995H72.5996C72.5585 28.9995 70.1464 26.5064 65.3633 21.5202L50.5011 36.7139H44.6025V36.6522L62.3831 18.2972C61.2497 17.2023 57.8956 13.6953 52.3208 7.77611V7.71057H58.1269L65.3825 15.1667L80.314 0H86.124V0.0616846Z" fill="#FF9A01"/>
<path d="M102.548 28.8452C102.55 28.8661 102.548 28.8872 102.541 28.9071C102.534 28.9269 102.523 28.9449 102.508 28.9598C102.493 28.9746 102.475 28.9859 102.455 28.9928C102.435 28.9996 102.414 29.0019 102.393 28.9995H98.3184C98.1989 28.9995 98.1372 28.9455 98.1372 28.8452V28.2978H98.0755C97.263 28.7194 96.3684 28.9588 95.4539 28.9995H83.3638C81.1303 28.9995 79.1435 27.6617 77.4035 24.9861C76.7051 23.7066 76.3293 22.2761 76.3086 20.8185V15.957C76.3086 12.8959 77.6669 10.4632 80.3836 8.65896C81.3818 8.04986 82.5261 7.72215 83.6953 7.71056H95.1571C96.1989 7.69104 97.229 7.93364 98.1526 8.41608V7.71056H102.548V28.8452ZM95.4539 12.1866C95.265 12.099 95.0551 12.0669 94.8487 12.094H83.9999C82.2393 12.094 81.1457 13.0463 80.719 14.9508V21.7631C80.719 22.9762 81.5801 23.9182 83.3021 24.589H95.0993C96.5745 24.589 97.5872 23.7074 98.1372 21.9443V15.1667C98.1475 13.6683 97.2531 12.6749 95.4539 12.1866Z" fill="white"/>
<path d="M107.992 13.4318C107.955 13.651 107.894 13.8656 107.811 14.0718C108.068 15.4289 108.696 16.1074 109.696 16.1074H123.317C126.74 16.1074 128.959 17.7896 129.975 21.154C130.086 21.5908 130.137 22.041 130.125 22.4917V22.5534C130.125 25.4089 128.686 27.4561 125.807 28.6949C125.28 28.886 124.725 28.9889 124.165 28.9995H104.164L109.97 24.589H124.014C125.472 24.4078 126.204 23.7794 126.204 22.7038V22.3992C126.204 21.3891 125.503 20.7877 124.107 20.6065H110.332C107.356 20.6065 105.289 18.9757 104.133 15.7141C104.032 15.3264 103.98 14.9274 103.979 14.5267V13.9176C103.979 11.1418 105.549 9.12546 108.69 7.86864C109.131 7.78161 109.578 7.72877 110.027 7.71057H129.882L124.593 12.094H110.49C109.168 12.094 108.339 12.5412 107.992 13.4318Z" fill="#4F8CEE"/>
<path d="M135.992 8.50862C136.239 8.34669 136.42 8.23489 136.539 8.17321C137.356 7.90394 138.206 7.74827 139.065 7.71057H150.314C153.252 7.71057 155.527 9.38119 157.138 12.7224C157.546 13.7488 157.763 14.8411 157.778 15.9455V20.7607C157.778 23.6984 156.47 26.0797 153.854 27.9046C152.825 28.6345 151.412 28.9995 149.613 28.9995H139.762C138.464 29.0296 137.175 28.766 135.992 28.2284V32.2803L131.616 35.1679V7.71057H135.992V8.50862ZM138.425 24.4695C138.995 24.5896 139.577 24.6401 140.16 24.6199H149.219C151.124 24.6199 152.35 24.093 152.897 23.0392C153.166 22.6509 153.333 22.2016 153.383 21.7322V15.1359C153.059 13.108 151.935 12.094 150.01 12.094H139.369C137.765 12.094 136.671 12.9036 136.084 14.5267C136.024 14.7241 135.992 14.9293 135.992 15.1359V21.4894C135.992 22.9261 136.803 23.9195 138.425 24.4695Z" fill="#4F8CEE"/>
<path d="M178.559 30.7305C179.978 30.2447 180.789 29.4236 180.992 28.267C180.194 28.7241 179.296 28.9759 178.378 28.9995H166.276C164.048 28.9995 162.061 27.6617 160.316 24.9861C159.618 23.7063 159.244 22.2758 159.225 20.8186V7.86865L159.252 7.77612L163.631 10.6059V21.7631C163.631 22.9762 164.492 23.9182 166.214 24.589H178.011C179.492 24.589 180.506 23.7074 181.053 21.9443V10.6367L185.429 7.77612L185.46 7.80697V26.6285C185.485 28.0887 185.16 29.5337 184.511 30.8423C182.874 33.7595 180.706 35.218 178.008 35.218H165.879L171.141 30.8423H177.83C178.077 30.833 178.321 30.7955 178.559 30.7305Z" fill="#4F8CEE"/>
</svg>
